# xmcd
# Track frame offsets:
# 150
# 12022
# 22664
# 37963
# 53887
# 68279
# 80525
# 91124
# 103203
# 115894
# 127348
# 138217
# 149949
# 159274
# 171305
# 183582
# 195608
# 206510
# 218552
# 230054
#
# Disc length: 3191 seconds
# Revision: 0
# Processed by: cddbd v1.5.1PL2 Copyright (c) Steve Scherf et al.
# Submitted via: VisiTrax 2.9.10.228 - For more info visit www.synapsa.com
#
DISCID=130c7514
DTITLE=Nichols.Nev. - Super Trucker.
DYEAR=1999
DGENRE=Country
TTITLE0=Supertrucker.
TTITLE1=Johnny Overload.
TTITLE2=Macks Cafe.
TTITLE3=Hot Wheels.
TTITLE4=Who Neds A Wife.
TTITLE5=Backing To Bendigo.
TTITLE6=A Good love Is Like A Good Song.
TTITLE7=Buy Me A Beer.
TTITLE8=Rigs and Roads.
TTITLE9=Ballad Of Billy Wheeler.
TTITLE10=Truckin' Around.
TTITLE11=DJ Hoedown John.
TTITLE12=My Truckin' Life.
TTITLE13=Power Of Positive Drinkin'., The
TTITLE14=That's Just My Truckin'  Luck.
TTITLE15=Roads.
TTITLE16=Hello Darlin'.
TTITLE17=Make A Mile.
TTITLE18=That's The Way It Goes.
TTITLE19=My Truckin' Oath.
EXTD=
EXTT0=
EXTT1=
EXTT2=
EXTT3=
EXTT4=
EXTT5=
EXTT6=
EXTT7=
EXTT8=
EXTT9=
EXTT10=
EXTT11=
EXTT12=
EXTT13=
EXTT14=
EXTT15=
EXTT16=
EXTT17=
EXTT18=
EXTT19=
PLAYORDER=
